<?xml version="1.0" standalone="no"?>
<!DOCTYPE svg PUBLIC "-//W3C//DTD SVG 20010904//EN"
 "http://www.w3.org/TR/2001/REC-SVG-20010904/DTD/svg10.dtd">
<svg version="1.0" xmlns="http://www.w3.org/2000/svg"
 width="198.000000pt" height="198.000000pt" viewBox="0 0 198.000000 198.000000"
 preserveAspectRatio="xMidYMid meet">
<metadata>
Created by potrace 1.14, written by Peter Selinger 2001-2017
</metadata>
<g transform="translate(0.000000,198.000000) scale(0.100000,-0.100000)"
fill="#000000" stroke="none">
<path d="M760 1946 c0 -3 -123 -347 -429 -1201 -68 -187 -152 -422 -188 -523
-36 -101 -63 -186 -60 -189 5 -5 124 -6 305 -4 l63 1 -22 29 c-17 24 -21 39
-17 79 4 42 19 71 105 198 259 386 303 498 307 787 l2 117 -26 0 c-57 0 -107
68 -88 121 20 57 41 62 275 62 182 0 216 -3 238 -17 50 -33 57 -87 18 -135
-15 -19 -38 -26 -87 -30 -9 -1 -2 -275 8 -326 31 -149 102 -291 265 -533 53
-79 105 -160 116 -180 23 -44 24 -112 1 -147 -9 -13 -16 -26 -16 -27 0 -5 361
0 366 4 2 2 -73 218 -167 479 -94 261 -191 530 -215 599 -24 69 -102 285 -172
480 l-128 355 -227 2 c-125 1 -227 1 -227 -1z"/>
<path d="M1054 975 c-4 -9 0 -23 8 -31 20 -20 50 -7 46 20 -4 26 -45 35 -54
11z"/>
<path d="M840 788 c-20 -22 -19 -48 2 -75 13 -16 60 -17 76 -1 20 20 14 65
-10 82 -30 21 -43 20 -68 -6z"/>
<path d="M841 532 c-18 -34 24 -57 49 -27 10 12 10 18 0 30 -17 20 -37 19 -49
-3z"/>
<path d="M1044 480 c-53 -22 -72 -107 -34 -148 59 -63 160 -25 160 59 0 67
-67 114 -126 89z"/>
<path d="M639 294 c-20 -24 -19 -41 3 -60 21 -20 42 -13 62 20 9 14 6 21 -13
37 -28 23 -35 24 -52 3z"/>
<path d="M1202 161 c-21 -13 -11 -55 15 -59 30 -4 49 31 27 52 -18 18 -24 19
-42 7z"/>
</g>
</svg>
